<?xml version="1.0" standalone="no"?>
<!DOCTYPE svg PUBLIC "-//W3C//DTD SVG 20010904//EN"
 "http://www.w3.org/TR/2001/REC-SVG-20010904/DTD/svg10.dtd">
<svg version="1.0" xmlns="http://www.w3.org/2000/svg"
 width="1000.000000pt" height="981.000000pt" viewBox="0 0 1000.000000 981.000000"
 preserveAspectRatio="xMidYMid meet">

<g transform="translate(0.000000,981.000000) scale(0.100000,-0.100000)"
fill="#000000" stroke="none">
<path d="M4968 9033 c-7 -9 -5 -11 9 -9 13 3 19 -2 21 -17 1 -17 -1 -19 -8 -7
-8 12 -10 11 -10 -5 0 -17 7 -21 33 -23 17 -1 106 -6 197 -12 686 -43 1280
-224 1880 -574 155 -90 149 -88 162 -80 6 4 8 3 5 -3 -4 -6 -1 -13 6 -16 22
-8 11 59 -14 87 -32 33 -231 152 -388 230 -510 256 -1047 401 -1616 436 -195
12 -262 10 -277 -7z m2297 -692 c3 -5 2 -12 -3 -15 -5 -3 -9 1 -9 9 0 17 3 19
12 6z"/>
<path d="M4820 8637 c-19 -6 -44 -27 -57 -46 -20 -29 -23 -47 -23 -123 0 -140
30 -188 123 -196 118 -9 160 39 159 180 0 94 -18 148 -57 174 -31 20 -104 26
-145 11z m125 -50 c47 -40 53 -209 10 -257 -41 -45 -133 -33 -161 21 -33 64
-14 235 28 252 35 14 98 6 123 -16z"/>
<path d="M5100 8626 c0 -11 9 -16 33 -16 17 0 43 -3 56 -7 23 -6 23 -6 17
-122 -4 -64 -9 -137 -12 -163 -5 -43 -4 -48 14 -48 21 0 22 4 38 239 l7 94 53
-6 c39 -4 54 -2 58 8 3 8 2 16 -3 19 -4 3 -64 8 -134 12 -114 6 -127 5 -127
-10z"/>
<path d="M4550 8616 c0 -12 41 -284 45 -304 12 -49 -17 -13 -103 128 -83 135
-91 145 -122 148 -18 2 -36 0 -40 -5 -4 -4 4 -87 19 -183 22 -146 29 -175 44
-178 22 -4 22 7 -4 173 -11 74 -19 142 -17 151 2 9 45 -54 98 -141 l95 -156
34 5 c18 3 35 7 37 9 3 2 -7 79 -21 170 -14 91 -25 171 -25 176 0 6 -9 11 -20
11 -11 0 -20 -2 -20 -4z"/>
<path d="M5610 8588 c0 -3 -16 -83 -35 -178 -19 -95 -34 -174 -32 -176 5 -5
161 -34 183 -34 61 0 107 99 70 154 -15 24 -15 26 9 50 19 19 25 35 25 70 0
70 -28 88 -180 112 -22 4 -40 4 -40 2z m148 -64 c27 -11 32 -18 32 -47 0 -48
-20 -71 -61 -69 -52 3 -104 17 -104 27 1 6 4 34 9 63 l8 53 42 -6 c22 -4 56
-13 74 -21z m-28 -162 c26 -13 36 -24 38 -45 5 -43 -22 -77 -61 -77 -34 0
-105 15 -113 23 -3 3 0 33 7 67 l12 61 41 -6 c23 -4 57 -14 76 -23z"/>
<path d="M4136 8542 c-3 -5 13 -77 35 -161 22 -84 38 -155 36 -158 -3 -2 -54
59 -114 136 l-108 141 -35 -6 c-19 -3 -37 -8 -39 -10 -3 -3 28 -127 81 -321 8
-31 30 -44 42 -25 3 5 -13 75 -35 156 -22 81 -39 152 -37 158 2 5 53 -54 113
-131 110 -141 110 -141 145 -135 19 3 36 7 38 9 2 2 -18 82 -44 179 -43 163
-59 198 -78 168z"/>
<path d="M5985 8497 c-17 -52 -94 -306 -97 -321 -2 -17 10 -24 82 -46 47 -15
95 -30 108 -34 18 -6 22 -4 22 12 0 16 -14 24 -72 42 -40 11 -79 23 -85 25 -7
2 -11 10 -9 17 3 7 12 36 21 65 l16 52 56 -20 c67 -23 93 -24 93 -4 0 9 -25
22 -70 35 -38 11 -70 22 -70 24 0 9 34 102 40 109 4 4 42 -4 86 -17 95 -31 94
-31 94 -7 0 14 -14 22 -57 35 -32 9 -80 23 -106 31 -37 11 -49 11 -52 2z"/>
<path d="M3653 8395 c-18 -8 -33 -21 -33 -30 0 -26 32 -360 35 -363 1 -1 10 0
19 4 15 6 16 15 11 54 -4 26 -3 50 2 53 5 3 39 17 76 31 l66 25 28 -39 c30
-43 32 -44 51 -31 11 6 -12 45 -95 159 -59 83 -112 151 -118 151 -5 0 -25 -6
-42 -14z m90 -105 c31 -44 57 -83 57 -87 0 -11 -119 -53 -124 -45 -7 13 -17
192 -11 202 11 18 19 11 78 -70z"/>
<path d="M6432 8307 c-11 -23 -45 -97 -76 -164 -32 -68 -55 -127 -51 -133 14
-23 34 -7 59 50 15 33 29 60 31 60 2 0 24 -9 49 -20 l46 -19 0 -81 c0 -44 2
-80 4 -80 2 0 11 -3 20 -6 14 -5 16 5 16 75 0 73 2 81 19 81 31 0 80 48 92 90
22 74 1 102 -123 158 l-68 31 -18 -42z m162 -80 c20 -27 17 -51 -15 -91 -25
-32 -54 -33 -116 -4 -27 13 -49 23 -51 24 -1 0 12 33 29 71 l31 71 52 -23 c28
-13 59 -35 70 -48z"/>
<path d="M3363 8271 c-77 -37 -97 -65 -90 -127 6 -56 56 -159 98 -201 25 -26
40 -33 71 -33 58 0 162 58 152 84 -4 11 -20 6 -69 -20 -56 -29 -69 -32 -95
-23 -44 16 -120 151 -120 213 0 30 47 71 101 87 26 8 39 18 37 27 -5 25 -20
24 -85 -7z"/>
<path d="M6722 8056 c-39 -68 -81 -140 -92 -159 l-21 -35 95 -56 c52 -31 97
-56 99 -56 3 0 7 7 11 15 4 10 -16 27 -65 56 -38 23 -72 45 -75 50 -6 11 47
109 59 109 5 0 35 -15 67 -34 49 -29 61 -32 70 -21 10 12 3 20 -35 42 -90 53
-89 51 -53 109 l31 51 79 -45 c64 -36 82 -42 88 -31 5 7 8 14 7 15 -5 4 -188
114 -190 114 -1 0 -35 -56 -75 -124z"/>
<path d="M2955 8038 c-106 -54 -136 -129 -76 -189 35 -35 54 -36 144 -7 l69
23 24 -28 c44 -52 25 -92 -69 -142 -34 -18 -50 -45 -27 -45 24 0 109 51 134
80 31 38 33 73 6 118 -32 53 -59 59 -139 34 -82 -27 -93 -27 -114 -4 -39 43
-13 89 76 137 35 18 43 35 21 41 -5 2 -27 -6 -49 -18z"/>
<path d="M6985 7848 c-85 -118 -105 -152 -94 -159 21 -13 21 -13 62 46 21 30
43 55 48 55 6 0 36 -18 67 -40 48 -35 57 -38 65 -24 5 8 7 17 5 18 -1 1 -29
21 -60 43 l-58 40 41 57 c22 31 43 56 46 56 3 0 36 -22 73 -50 56 -40 70 -47
80 -35 9 11 0 22 -47 56 -32 23 -72 52 -89 65 l-31 23 -108 -151z"/>
<path d="M2691 7847 c-8 -10 13 -42 93 -138 57 -68 100 -125 95 -127 -5 -2
-79 33 -166 77 l-157 81 -27 -26 -27 -26 110 -131 c61 -73 114 -136 119 -141
5 -5 14 -4 23 3 13 11 0 31 -90 138 -58 69 -103 127 -100 130 2 2 75 -32 163
-75 l158 -80 30 24 c27 21 28 24 14 41 -9 10 -62 73 -118 141 -56 67 -104 122
-105 122 -2 0 -8 -6 -15 -13z"/>
<path d="M5945 7792 c284 -98 489 -198 720 -353 486 -325 863 -769 1094 -1291
274 -618 333 -1308 169 -1968 -140 -564 -454 -1091 -883 -1483 -315 -287 -644
-486 -1050 -634 -108 -39 -111 -43 -25 -27 113 21 481 174 602 250 41 26 64
30 70 13 13 -39 330 199 391 293 19 29 96 123 172 208 255 288 417 522 555
805 152 310 233 569 287 915 28 179 25 646 -5 829 -100 609 -348 1126 -776
1621 -50 57 -120 136 -155 175 -35 38 -75 88 -90 110 -30 45 -59 72 -168 156
-117 91 -187 131 -216 124 -18 -5 -46 5 -103 38 -177 99 -520 236 -630 252
-21 3 -52 8 -69 11 -16 2 33 -17 110 -44z"/>
<path d="M1925 7681 c-111 -124 -275 -333 -301 -383 -10 -19 -11 -29 -3 -34 8
-4 7 -9 -2 -15 -11 -7 -11 -9 1 -9 13 0 13 -1 0 -10 -11 -7 -11 -10 -2 -10 8
0 10 -5 5 -12 -12 -20 -12 -37 -1 -45 6 -3 8 -1 4 5 -3 5 -2 12 2 14 5 1 56
66 114 143 58 77 141 180 184 229 119 134 115 127 112 193 l-3 58 -110 -124z"/>
<path d="M7310 7740 c-19 -10 -49 -33 -67 -52 -92 -97 -108 -169 -52 -233 55
-63 111 -80 167 -51 45 23 127 118 146 168 18 46 18 48 -3 90 -23 49 -90 98
-131 98 -14 -1 -41 -9 -60 -20z m131 -59 c22 -21 39 -47 39 -57 -1 -39 -61
-122 -124 -171 -40 -32 -78 -29 -121 8 -52 46 -49 91 8 161 51 62 100 98 135
98 15 0 39 -15 63 -39z"/>
<path d="M2350 7533 c-23 -8 -70 -55 -86 -85 -19 -36 -18 -88 3 -118 56 -85
146 -150 206 -150 34 0 47 7 88 49 44 43 49 53 49 92 0 47 -13 72 -64 128 -65
71 -141 104 -196 84z m106 -62 c54 -40 101 -91 113 -123 14 -36 1 -67 -39
-101 -56 -48 -106 -32 -189 58 -65 72 -69 109 -17 161 43 43 79 44 132 5z"/>
<path d="M7528 7397 c-114 -105 -133 -126 -123 -140 10 -14 18 -10 64 30 l53
46 36 -36 36 -36 -29 -70 c-26 -65 -28 -101 -6 -101 5 0 22 32 37 71 25 65 30
70 52 64 64 -16 142 47 142 114 0 36 -29 78 -114 169 -10 10 -39 -12 -148
-111z m181 18 c52 -56 55 -92 10 -129 -17 -14 -40 -26 -51 -26 -10 0 -43 22
-71 49 l-51 49 55 50 c29 28 57 51 60 52 4 0 25 -20 48 -45z"/>
<path d="M3290 7441 c-41 -27 -78 -47 -81 -45 -4 2 -10 -3 -13 -12 -4 -9 -9
-14 -13 -10 -3 3 -15 -1 -25 -11 -10 -9 -18 -14 -19 -12 0 2 -2 12 -4 22 -3
15 -1 16 11 6 8 -7 14 -8 13 -3 -4 21 2 26 19 13 15 -13 16 -12 3 4 -10 13
-17 15 -27 6 -8 -6 -14 -8 -14 -4 0 4 -7 2 -15 -5 -8 -7 -12 -17 -8 -23 3 -6
1 -7 -6 -3 -6 4 -30 -8 -55 -29 -38 -31 -45 -42 -48 -80 -2 -25 0 -45 4 -45 6
0 75 55 88 71 3 3 50 39 105 80 55 40 107 79 115 86 8 7 24 19 35 27 42 32 7
14 -65 -33z m-160 -97 c0 -8 -19 -13 -24 -6 -3 5 1 9 9 9 8 0 15 -2 15 -3z"/>
<path d="M5885 7370 c-4 -6 1 -7 11 -3 13 5 15 3 9 -7 -6 -10 -4 -12 8 -7 10
3 17 2 17 -3 0 -5 16 -14 35 -21 19 -7 35 -17 35 -21 0 -11 5 -12 -95 22 -122
41 -128 37 -16 -10 52 -22 102 -47 111 -55 9 -8 20 -12 25 -8 4 5 4 2 0 -6 -6
-10 -4 -13 7 -9 8 4 15 0 15 -8 0 -11 -4 -11 -26 1 -30 16 -123 46 -128 42 -1
-2 22 -14 52 -26 30 -13 55 -27 55 -32 0 -5 5 -8 11 -6 6 1 14 -5 16 -13 4
-12 3 -12 -5 -2 -5 8 -12 13 -16 13 -3 -1 -7 -1 -8 0 -2 0 -10 2 -19 4 -9 1
-27 6 -40 9 -13 4 -6 -3 16 -15 22 -11 51 -28 65 -37 14 -9 30 -17 35 -17 6 0
11 -6 11 -12 1 -7 2 -18 3 -24 1 -8 5 -8 14 -1 10 8 13 6 14 -11 2 -17 0 -19
-7 -7 -5 8 -10 11 -10 7 0 -4 -10 -2 -22 5 -13 7 -27 12 -31 13 -4 0 -12 7
-17 15 -9 13 -10 13 -10 0 0 -9 -3 -11 -8 -5 -4 6 -14 12 -22 14 -48 12 -51
10 -15 -10 47 -26 50 -27 43 -34 -3 -3 -24 2 -48 10 -59 21 -62 18 -10 -10 51
-27 50 -32 -3 -10 -69 29 -52 14 30 -25 45 -22 84 -44 87 -49 10 -16 -11 -22
-26 -9 -7 7 -20 14 -28 16 -8 2 -50 16 -92 33 -113 43 -107 35 20 -26 61 -29
112 -56 112 -58 0 -2 -37 11 -82 29 -45 18 -85 31 -90 28 -4 -3 -8 -2 -8 3 0
4 -12 9 -28 9 -19 1 -4 -10 53 -37 44 -21 69 -36 55 -34 l-25 6 25 -15 c31
-19 6 -22 -37 -5 -15 6 -53 13 -83 15 -30 2 -98 8 -150 13 -295 29 -745 -20
-1082 -118 -285 -84 -568 -210 -568 -254 0 -5 -8 -16 -17 -24 -10 -7 20 5 66
27 47 22 90 40 96 40 7 0 69 25 138 54 70 30 164 67 209 82 46 15 88 30 93 35
21 16 244 78 335 93 315 52 691 55 915 6 22 -5 76 -14 120 -21 84 -12 163 -30
206 -47 14 -6 42 -13 63 -16 20 -3 54 -14 74 -25 20 -10 42 -16 48 -14 6 2 41
-12 78 -32 37 -19 72 -33 76 -30 5 3 11 1 15 -4 3 -6 20 -20 38 -31 18 -12 3
5 -33 39 -35 33 -61 63 -57 67 4 4 7 2 7 -5 0 -7 4 -10 8 -7 23 14 416 -367
484 -469 72 -107 135 -249 164 -371 22 -89 27 -134 28 -244 1 -74 -2 -160 -6
-190 -6 -48 -1 -38 37 70 24 69 44 117 44 108 1 -23 20 -33 20 -11 0 10 7 47
16 83 9 36 19 101 21 145 3 44 9 81 12 82 8 3 7 100 -2 153 -45 290 -43 277
-50 288 -3 5 -7 21 -10 35 -17 97 -134 318 -221 420 -232 271 -515 414 -920
466 -82 10 -122 9 -117 -2 1 -4 2 -10 2 -13 0 -4 6 -2 13 3 14 11 37 11 37 1
0 -30 -1 -32 -8 -23 -4 6 -14 10 -22 10 -8 -1 -37 7 -65 17 -58 21 -62 21 -70
8z m180 -180 c3 -6 -1 -7 -9 -4 -18 7 -21 14 -7 14 6 0 13 -4 16 -10z m-33
-94 c7 4 8 2 4 -5 -9 -13 -26 -5 -25 12 0 9 2 8 6 -1 2 -6 10 -9 15 -6z m56
-101 c-3 -3 -9 2 -12 12 -6 14 -5 15 5 6 7 -7 10 -15 7 -18z m-13 -35 c3 -6
-1 -7 -9 -4 -18 7 -21 14 -7 14 6 0 13 -4 16 -10z m642 -22 c0 -18 -2 -25 -4
-16 -2 9 -10 15 -17 12 -8 -3 -16 2 -20 12 -5 14 -4 15 9 4 12 -10 16 -9 21 4
9 23 11 20 11 -16z m19 -95 c24 -24 44 -45 44 -48 0 -8 -165 136 -169 148 -5
15 70 -46 125 -100z m-162 76 c16 1 36 -13 36 -26 0 -8 4 -12 9 -9 14 9 172
-134 184 -167 4 -11 12 -15 19 -11 7 4 10 4 6 -1 -4 -4 -3 -15 3 -24 7 -9 -2
-1 -20 17 -17 17 -34 33 -38 35 -5 1 -7 5 -5 10 1 4 -1 6 -5 5 -11 -4 -213
173 -213 186 0 6 4 5 9 -2 4 -8 11 -13 15 -13z m-26 -19 c6 0 17 -9 25 -20 8
-11 16 -18 18 -15 7 7 204 -188 207 -205 2 -8 -27 15 -65 51 -37 36 -85 79
-105 96 -20 17 -34 35 -30 39 4 4 2 4 -4 1 -6 -3 -31 15 -55 41 -24 25 -35 39
-23 29 11 -9 26 -17 32 -17z m217 20 c8 7 12 5 12 -5 0 -7 -5 -13 -11 -12 -6
1 -10 -5 -8 -13 3 -12 1 -12 -9 -3 -7 7 -14 20 -15 29 -2 12 0 14 8 6 8 -8 16
-8 23 -2z m-495 -35 c14 -19 14 -19 -2 -6 -10 7 -18 18 -18 24 0 6 1 8 3 6 1
-2 9 -13 17 -24z m177 10 c0 -8 -4 -12 -9 -9 -5 3 -6 10 -3 15 9 13 12 11 12
-6z m31 3 c-2 -7 2 -12 9 -13 20 0 64 -45 57 -57 -4 -7 -3 -8 5 -4 6 4 8 12 5
18 -15 24 30 -12 121 -96 53 -49 92 -92 89 -98 -4 -6 -3 -9 2 -6 8 5 43 -23
37 -29 -2 -2 -3 -15 -3 -30 0 -22 2 -25 10 -13 5 8 10 10 10 4 0 -24 -15 -23
-41 2 -16 15 -26 31 -23 36 3 5 2 7 -3 6 -10 -4 -253 211 -253 224 0 5 -4 6
-10 3 -6 -3 -7 1 -4 10 4 10 2 15 -7 13 -12 -3 -20 18 -12 35 6 11 13 8 11 -5z
m299 -40 c-3 -7 -5 -2 -5 12 0 14 2 19 5 13 2 -7 2 -19 0 -25z m-433 -13 c11
-8 18 -17 15 -19 -2 -2 -15 4 -28 15 -27 22 -15 26 13 4z m123 -27 c-3 -8 -6
-5 -6 6 -1 11 2 17 5 13 3 -3 4 -12 1 -19z m28 -48 c10 -11 16 -20 13 -20 -3
0 -13 9 -23 20 -10 11 -16 20 -13 20 3 0 13 -9 23 -20z"/>
<path d="M6570 6916 c0 -2 8 -10 18 -17 15 -13 16 -12 3 4 -13 16 -21 21 -21
13z"/>
<path d="M6499 6863 c6 -12 16 -25 21 -28 17 -11 11 5 -11 28 l-21 22 11 -22z"/>
<path d="M2109 7274 c-7 -9 -8 -18 -3 -23 33 -32 270 -221 277 -221 22 0 16
32 -10 54 -203 171 -251 205 -264 190z"/>
<path d="M7777 7113 c-129 -92 -147 -108 -134 -120 12 -12 31 -2 142 76 71 50
130 89 132 87 2 -2 -39 -63 -91 -135 -84 -117 -94 -135 -83 -152 7 -11 18 -17
25 -14 44 17 295 85 299 82 2 -3 -52 -45 -121 -93 -118 -83 -139 -105 -117
-118 7 -5 274 173 299 199 2 2 -4 17 -14 34 -13 22 -24 29 -36 25 -60 -19
-284 -84 -290 -84 -4 0 35 58 88 130 l96 130 -22 30 c-12 16 -22 30 -23 29 -1
0 -69 -48 -150 -106z"/>
<path d="M1963 7084 c-40 -57 -73 -108 -73 -113 0 -26 29 -13 55 25 17 24 35
42 41 40 7 -3 68 -45 137 -95 107 -77 127 -88 138 -75 15 18 21 12 -128 118
-68 48 -123 90 -123 95 0 4 13 27 30 49 27 38 28 42 12 50 -14 8 -29 -8 -89
-94z"/>
<path d="M5984 7168 c-4 -7 -4 -10 1 -6 12 11 47 -11 39 -25 -4 -7 -4 -9 1 -5
4 4 13 3 20 -2 8 -7 12 -5 12 5 0 8 -4 12 -8 9 -4 -2 -10 0 -14 6 -12 20 -43
31 -51 18z"/>
<path d="M1782 6802 l-21 -38 135 -135 c104 -103 137 -131 143 -120 7 10 0 26
-24 54 l-33 38 39 69 40 68 46 -14 c37 -11 48 -12 55 -2 4 7 8 16 8 19 0 6
-334 99 -356 99 -6 0 -20 -17 -32 -38z m156 -32 c45 -12 82 -25 82 -27 0 -3
-14 -30 -31 -60 l-32 -55 -75 75 c-70 70 -86 105 -44 93 10 -3 54 -14 100 -26z"/>
<path d="M8055 6705 c-82 -46 -151 -88 -153 -94 -2 -5 9 -32 24 -58 15 -26 38
-67 51 -90 16 -29 28 -40 38 -36 13 4 7 21 -29 87 l-44 82 58 33 59 32 30 -53
c48 -85 47 -84 61 -71 10 9 5 26 -24 77 l-37 65 58 30 58 29 43 -79 c42 -77
54 -90 67 -69 6 10 -94 201 -104 199 -3 -1 -73 -39 -156 -84z"/>
<path d="M8744 6670 c3 -8 30 -72 60 -142 60 -139 159 -433 200 -593 191 -757
158 -1592 -92 -2335 -284 -842 -821 -1557 -1549 -2064 -46 -32 -83 -54 -83
-51 0 4 -6 2 -13 -4 -10 -8 -14 -7 -14 4 0 8 4 12 9 9 4 -3 8 2 8 11 0 9 -4
13 -10 10 -6 -3 -7 1 -4 10 5 13 9 13 23 3 10 -7 9 -4 -3 8 -13 13 -20 15 -23
6 -3 -6 -8 -10 -13 -7 -4 3 -68 -32 -141 -76 -258 -155 -603 -313 -874 -399
-361 -114 -783 -184 -1157 -191 -54 -1 -92 -6 -98 -14 -7 -8 -5 -12 5 -12 8 0
11 5 8 10 -3 6 -2 7 4 4 5 -4 9 -19 8 -34 l-1 -28 -150 2 c-359 4 -786 79
-1166 207 -168 56 -381 142 -500 202 -37 19 -68 32 -68 29 0 -8 170 -91 311
-150 390 -165 800 -269 1239 -315 140 -15 495 -20 650 -9 1588 107 2972 1111
3558 2584 354 887 388 1882 97 2784 -52 161 -158 430 -199 506 -15 28 -25 43
-22 35z"/>
<path d="M1646 6554 c-6 -15 9 -24 227 -122 37 -17 67 -34 67 -38 0 -4 -81 -4
-181 -1 l-180 5 -16 -34 c-9 -18 -15 -35 -12 -37 22 -16 323 -146 330 -141 26
16 -4 37 -132 95 -77 35 -143 67 -145 71 -3 4 77 8 178 8 l184 0 12 32 c6 17
11 32 9 33 -48 23 -324 145 -328 145 -4 0 -10 -7 -13 -16z"/>
<path d="M8215 6409 c-88 -37 -164 -70 -168 -71 -5 -2 9 -42 30 -88 44 -95 69
-116 137 -113 61 2 153 40 192 79 28 29 34 42 34 79 0 37 -40 155 -59 176 -3
4 -78 -24 -166 -62z m175 -45 c31 -85 16 -115 -81 -159 -65 -29 -130 -35 -155
-14 -18 15 -50 75 -56 103 -2 16 18 29 117 72 66 28 128 52 137 53 11 1 23
-16 38 -55z"/>
<path d="M3820 6445 c-14 -8 -20 -14 -14 -15 5 0 19 7 30 15 24 18 16 19 -16
0z"/>
<path d="M3645 6400 c-3 -5 -30 -17 -60 -26 -30 -10 -53 -19 -51 -22 8 -7 104
29 116 44 7 7 10 14 7 14 -3 0 -8 -4 -12 -10z"/>
<path d="M3488 6343 c7 -3 16 -2 19 1 4 3 -2 6 -13 5 -11 0 -14 -3 -6 -6z"/>
<path d="M3579 6306 c-2 -3 -31 -7 -64 -11 -33 -4 -90 -10 -127 -15 -36 -4
-99 -4 -140 1 -101 11 -140 11 -133 -1 4 -6 9 -8 13 -6 4 2 30 0 57 -6 114
-21 256 -24 305 -5 38 14 48 15 57 6 6 -6 14 -4 23 6 7 8 21 15 31 15 11 0 19
5 19 10 0 10 -32 14 -41 6z"/>
<path d="M3930 5840 l0 -230 600 0 600 0 0 35 0 35 -300 0 -300 0 0 30 0 30
300 0 300 0 0 35 0 35 -297 2 -298 3 -3 28 -3 27 300 0 301 0 0 35 0 35 -297
2 -298 3 -3 28 -3 27 300 0 301 0 0 35 0 35 -600 0 -600 0 0 -230z m320 165
c0 -16 11 -35 26 -49 20 -17 25 -28 20 -44 -6 -19 -15 -22 -62 -22 -48 0 -54
2 -54 21 0 29 18 59 35 59 10 0 15 10 15 30 0 17 5 30 10 30 6 0 10 -11 10
-25z m-160 5 c10 -5 22 -23 28 -39 29 -83 -93 -139 -133 -61 -36 69 35 137
105 100z m306 -16 c-52 -51 22 -136 76 -87 10 9 18 12 18 6 0 -20 -41 -46 -72
-46 -38 0 -68 33 -68 74 0 29 30 69 51 69 6 0 3 -7 -5 -16z m91 -15 c1 -11 -2
-17 -8 -14 -5 4 -9 1 -9 -4 0 -8 -6 -7 -19 1 -15 9 -17 15 -8 28 13 22 42 15
44 -11z m-270 -271 c-2 -35 -3 -9 -3 57 0 66 1 94 3 63 2 -32 2 -86 0 -120z
m33 62 c0 -67 -4 -110 -10 -110 -6 0 -10 43 -10 110 0 67 4 110 10 110 6 0 10
-43 10 -110z m30 76 c0 -19 6 -37 13 -39 9 -4 9 -8 -1 -15 -8 -5 -13 -24 -12
-43 4 -66 0 -100 -10 -94 -6 4 -10 53 -10 116 0 66 4 109 10 109 6 0 10 -15
10 -34z m-80 -46 c0 -5 -4 -10 -10 -10 -5 0 -10 5 -10 10 0 6 5 10 10 10 6 0
10 -4 10 -10z"/>
<path d="M3019 5986 c-8 -8 3 -136 12 -136 11 0 12 110 1 128 -5 7 -10 10 -13
8z"/>
<path d="M3598 5985 c-7 -11 -11 -54 -9 -105 1 -29 3 -32 12 -17 11 18 8 139
-3 122z"/>
<path d="M3157 5922 c-10 -10 -17 -35 -17 -55 0 -34 3 -37 28 -37 15 0 37 -3
50 -6 20 -6 22 -3 22 33 0 28 -7 46 -23 61 -28 27 -39 27 -60 4z"/>
<path d="M3422 5917 c-14 -15 -22 -36 -22 -59 0 -33 2 -35 28 -31 75 12 75 11
69 49 -11 65 -38 80 -75 41z"/>
<path d="M8337 5923 c-8 -15 36 -153 49 -153 22 0 22 12 2 88 -18 65 -37 89
-51 65z"/>
<path d="M1606 5871 c-3 -9 -10 -36 -16 -61 -6 -25 -13 -53 -16 -62 -4 -13 0
-18 14 -18 15 0 23 15 39 74 19 71 19 75 2 79 -11 3 -20 -1 -23 -12z"/>
<path d="M3361 5844 c0 -11 3 -14 6 -6 3 7 2 16 -1 19 -3 4 -6 -2 -5 -13z"/>
<path d="M3657 5807 c-6 -41 -4 -42 16 -8 14 24 15 30 3 34 -10 4 -15 -4 -19
-26z"/>
<path d="M3190 5785 c0 -8 4 -15 8 -15 5 0 9 7 9 15 0 8 -4 15 -9 15 -4 0 -8
-7 -8 -15z"/>
<path d="M3145 5760 c-3 -5 -1 -10 4 -10 6 0 11 5 11 10 0 6 -2 10 -4 10 -3 0
-8 -4 -11 -10z"/>
<path d="M3473 5755 c0 -8 4 -12 9 -9 4 3 8 9 8 15 0 5 -4 9 -8 9 -5 0 -9 -7
-9 -15z"/>
<path d="M3190 5749 c0 -5 5 -7 10 -4 6 3 10 8 10 11 0 2 -4 4 -10 4 -5 0 -10
-5 -10 -11z"/>
<path d="M3545 5678 c-27 -5 -92 -16 -143 -25 -88 -15 -98 -15 -197 4 -108 20
-131 19 -115 -7 6 -8 10 -12 10 -9 0 3 24 2 53 -3 62 -11 69 -12 172 -23 44
-5 83 -8 87 -7 3 1 21 4 39 7 18 3 39 11 46 17 8 6 16 8 20 5 3 -4 12 -2 19 4
9 7 14 5 19 -10 5 -17 10 -19 26 -11 16 9 19 7 19 -12 l0 -22 16 22 c18 27 15
75 -6 77 -8 1 -37 -2 -65 -7z"/>
<path d="M3040 5670 c19 -13 30 -13 30 0 0 6 -10 10 -22 10 -19 0 -20 -2 -8
-10z"/>
<path d="M5665 5600 c-3 -5 -25 -10 -48 -10 -51 0 -87 -23 -87 -55 0 -13 -11
-37 -25 -53 -17 -21 -25 -42 -25 -68 0 -22 -4 -45 -9 -53 -6 -9 -4 -22 4 -35
19 -30 30 -96 16 -96 -6 0 -11 -10 -11 -22 0 -13 -12 -34 -25 -47 -14 -13 -25
-30 -25 -38 0 -9 -11 -26 -25 -39 -24 -23 -25 -26 -23 -154 l3 -130 32 0 c18
0 33 5 33 10 0 6 9 10 21 10 11 0 18 -3 16 -7 -3 -5 13 -9 36 -11 26 -2 54
-13 77 -30 19 -15 38 -26 42 -25 4 2 5 -4 2 -12 -4 -10 0 -15 14 -15 29 0 37
-19 16 -35 -12 -9 -14 -14 -6 -15 7 0 10 -5 7 -10 -10 -15 34 -70 56 -70 19 0
19 12 19 495 l0 495 -36 15 c-43 18 -41 18 -49 5z"/>
<path d="M3168 5534 c-3 -55 4 -85 15 -67 9 14 6 112 -3 118 -4 3 -10 -20 -12
-51z"/>
<path d="M6515 5580 c-3 -5 -14 -10 -23 -10 -10 0 -29 -11 -44 -25 -31 -28
-52 -31 -88 -10 -14 8 -42 14 -62 15 l-38 0 0 -351 c0 -222 4 -357 10 -370 13
-24 39 -25 47 -1 3 9 13 25 20 34 8 9 12 21 9 26 -3 5 1 15 9 22 8 7 24 38 35
69 13 35 29 60 43 66 12 6 25 25 30 45 5 19 17 43 27 52 10 10 16 25 13 36 -3
12 2 22 11 25 9 4 16 14 16 24 1 37 44 95 80 107 32 10 35 15 38 54 3 37 0 43
-22 52 -20 7 -26 17 -26 38 0 31 -48 112 -67 112 -6 0 -15 -4 -18 -10z"/>
<path d="M3930 5515 l0 -35 600 0 600 0 0 35 0 35 -600 0 -600 0 0 -35z"/>
<path d="M3930 5385 l0 -35 600 0 600 0 0 35 0 35 -600 0 -600 0 0 -35z"/>
<path d="M3930 5255 l0 -35 600 0 600 0 0 35 0 35 -600 0 -600 0 0 -35z"/>
<path d="M8573 5259 c-38 -11 -49 -28 -64 -101 -15 -73 -33 -98 -69 -98 -43 0
-60 31 -60 113 0 60 -2 68 -17 65 -13 -2 -19 -15 -21 -43 -9 -111 26 -175 96
-175 59 0 88 28 102 98 6 31 15 67 20 78 10 26 50 37 84 24 31 -12 51 -75 41
-137 -6 -39 -4 -43 15 -43 21 0 22 3 19 85 -4 75 -7 87 -29 109 -30 29 -73 38
-117 25z"/>
<path d="M3147 5220 c-22 -17 -27 -30 -27 -65 0 -40 2 -44 30 -49 17 -3 44 -9
60 -12 30 -6 30 -5 30 38 0 37 -6 49 -33 76 l-34 33 -26 -21z"/>
<path d="M1490 5191 c-80 -15 -162 -31 -183 -35 -37 -7 -38 -9 -35 -44 l3 -36
142 -35 c78 -20 144 -39 147 -42 3 -3 -62 -18 -144 -34 l-150 -28 0 -38 c0
-32 4 -40 23 -44 144 -33 329 -75 333 -75 2 0 4 9 4 20 0 12 -8 22 -22 25 -42
9 -302 65 -305 65 -2 0 -3 4 -3 9 0 4 74 23 166 41 164 33 165 33 162 58 -3
25 -11 28 -158 65 -85 21 -157 40 -160 43 -11 11 26 20 174 43 150 23 156 25
156 48 0 13 -1 22 -2 22 -2 -1 -68 -14 -148 -28z"/>
<path d="M3686 5131 c-10 -16 -2 -61 11 -61 6 0 19 10 28 22 14 21 14 24 -2
35 -20 15 -30 16 -37 4z"/>
<path d="M3129 5078 c-1 -2 -2 -18 -4 -36 -2 -24 1 -32 11 -28 8 3 14 1 14 -5
0 -6 5 -7 10 -4 15 9 12 25 -5 25 -8 0 -15 4 -15 8 0 4 9 8 21 8 16 0 20 -5
16 -23 -2 -13 -1 -26 4 -29 10 -6 31 31 21 40 -3 4 1 4 11 0 13 -4 17 -1 17
15 0 24 -10 27 -29 9 -10 -9 -12 -9 -7 -1 5 9 -4 10 -31 7 -29 -4 -34 -3 -23
5 10 7 11 11 3 11 -7 0 -14 -1 -14 -2z"/>
<path d="M3210 5005 c0 -8 5 -15 10 -15 6 0 10 7 10 15 0 8 -4 15 -10 15 -5 0
-10 -7 -10 -15z"/>
<path d="M2970 4926 c0 -24 3 -27 10 -16 8 12 10 10 11 -10 1 -18 3 -20 6 -7
3 13 8 15 17 8 13 -11 62 -22 121 -26 72 -5 169 -17 190 -24 26 -9 77 -7 93 3
7 4 19 3 26 -3 9 -7 16 -7 24 1 8 8 15 8 25 0 10 -9 17 -7 31 9 21 25 40 20
44 -10 3 -19 8 -21 35 -17 40 6 57 30 57 79 l0 39 -42 -5 c-24 -3 -68 -10 -98
-16 -224 -42 -202 -41 -397 -4 l-153 30 0 -31z"/>
<path d="M8360 4902 c0 -21 5 -22 80 -22 l80 0 0 -64 c0 -35 -3 -78 -6 -95
l-6 -31 -79 0 c-72 0 -79 -2 -79 -20 0 -18 7 -20 68 -20 37 0 118 -3 180 -7
110 -6 112 -6 112 15 0 21 -5 22 -80 22 l-81 0 3 93 3 92 83 3 c74 3 82 5 82
22 0 18 -7 20 -73 20 -41 0 -122 3 -180 7 -105 6 -107 6 -107 -15z"/>
<path d="M5658 4703 c7 -3 16 -2 19 1 4 3 -2 6 -13 5 -11 0 -14 -3 -6 -6z"/>
<path d="M1430 4686 c-130 -10 -145 -13 -148 -30 -4 -18 1 -19 114 -12 231 13
252 16 247 37 -6 21 3 21 -213 5z"/>
<path d="M3147 4602 c-4 -36 -3 -71 2 -80 17 -29 23 8 13 79 l-8 64 -7 -63z"/>
<path d="M2526 4510 c-84 -252 -112 -429 -103 -658 10 -255 72 -455 199 -639
56 -81 222 -253 245 -253 7 0 13 -4 13 -8 0 -5 20 -23 45 -40 52 -37 47 -17
-9 37 -19 19 -32 39 -29 45 3 6 3 8 -2 4 -8 -8 -69 62 -61 70 8 7 27 -9 21
-19 -10 -15 1 -10 15 7 11 12 11 15 -1 12 -9 -2 -13 4 -11 17 2 16 1 17 -7 5
-9 -13 -11 -13 -11 3 0 9 6 17 13 17 8 0 8 3 1 8 -6 4 -14 16 -18 27 -6 17 -4
16 16 -5 13 -13 22 -28 21 -32 -2 -5 0 -7 5 -6 4 1 59 -50 122 -113 63 -63 83
-81 44 -39 -84 89 -184 207 -184 218 0 4 59 -54 130 -128 71 -74 129 -131 130
-127 0 5 12 -6 27 -23 15 -18 58 -59 97 -93 59 -51 66 -59 41 -53 -72 18 21
-21 120 -51 28 -8 60 -16 73 -18 20 -3 142 -23 252 -42 106 -18 453 1 600 32
170 37 215 48 220 55 3 3 32 12 65 19 33 7 65 17 70 21 6 4 73 31 150 60 77
29 193 76 257 106 64 30 124 54 132 54 9 0 16 4 16 9 0 5 14 12 30 16 17 4 30
10 30 15 0 5 14 11 30 15 17 4 30 10 30 15 0 4 12 11 28 15 15 3 34 12 42 19
8 7 67 43 130 81 63 37 151 94 195 125 87 63 210 167 210 178 0 4 4 13 9 20
12 20 -99 -45 -194 -113 -367 -264 -698 -441 -1035 -553 -288 -96 -596 -152
-835 -152 l-116 0 -98 60 c-182 111 -346 240 -491 385 -130 129 -288 336 -270
353 3 3 5 0 5 -7 0 -7 4 -10 9 -7 5 3 11 0 14 -7 6 -17 163 -203 178 -213 7
-4 -13 22 -43 58 -69 82 -142 188 -134 196 7 7 3 11 98 -108 42 -52 88 -106
104 -120 15 -14 -2 10 -38 53 -37 43 -84 104 -105 135 -21 31 -70 88 -109 127
-194 193 -281 374 -315 655 -6 58 -19 118 -26 134 -16 30 -11 143 8 235 18 84
1 51 -45 -89z m454 -1180 c187 -235 437 -456 689 -609 59 -36 77 -51 61 -51
-12 0 -45 13 -71 30 -27 16 -49 27 -49 23 0 -4 -7 2 -15 13 -8 10 -15 15 -15
10 0 -6 -7 -1 -15 10 -8 10 -15 16 -15 12 0 -4 -12 4 -26 17 -15 14 -30 22
-35 19 -5 -3 -9 -1 -9 4 0 7 -169 148 -186 155 -13 4 -223 221 -229 235 -3 7
-10 10 -17 6 -7 -4 -10 -4 -6 1 4 4 -21 44 -56 89 -72 93 -83 110 -68 105 6
-2 34 -33 62 -69z m-95 0 c-12 -19 -12 -57 0 -57 8 0 11 10 8 30 -3 22 -1 27
9 21 10 -6 10 -4 -1 9 -8 10 -12 20 -9 23 3 2 18 -12 34 -33 55 -73 176 -203
183 -199 4 3 30 -17 56 -44 27 -28 45 -50 40 -50 -5 0 11 -20 35 -45 42 -43
69 -59 54 -32 -4 6 -4 9 0 5 4 -3 8 -10 7 -15 0 -11 40 -53 51 -53 5 0 6 6 2
13 -4 6 -4 9 0 5 4 -3 8 -10 8 -15 -1 -11 29 -43 40 -43 5 0 6 5 2 12 -4 7 -3
8 5 4 6 -4 9 -11 6 -16 -7 -12 122 -103 135 -95 6 4 9 1 8 -7 -2 -7 5 -12 14
-12 10 1 16 -2 13 -6 -8 -12 63 -53 76 -44 8 4 9 3 5 -5 -5 -7 -21 -10 -39 -7
-18 3 -70 10 -116 17 -79 11 -88 15 -161 70 -42 32 -101 79 -131 106 -44 38
-48 40 -19 9 19 -20 70 -65 113 -98 102 -81 106 -94 6 -22 -25 19 -49 30 -53
26 -4 -4 -6 -2 -4 4 1 5 -15 25 -37 44 -114 96 -365 362 -365 387 0 3 19 -16
42 -43 24 -27 90 -96 148 -154 58 -58 71 -70 29 -25 -115 121 -190 215 -183
227 4 6 3 8 -3 5 -9 -6 -21 9 -28 36 -2 4 -3 8 -5 10 -6 8 -7 36 0 32 12 -8
18 30 8 51 -9 19 -9 19 6 0 8 -10 13 -22 11 -26z"/>
<path d="M2876 3248 c3 -5 10 -6 15 -3 13 9 11 12 -6 12 -8 0 -12 -4 -9 -9z"/>
<path d="M3150 3078 c41 -45 50 -53 50 -45 0 2 -21 23 -47 47 l-48 45 45 -47z"/>
<path d="M1624 4536 c5 -40 4 -55 -6 -58 -7 -3 -77 -13 -155 -23 -78 -10 -147
-21 -153 -25 -6 -4 -8 -13 -5 -21 6 -15 73 -9 296 25 l37 6 7 -55 c5 -46 10
-55 26 -55 15 0 19 5 15 18 -2 9 -10 58 -16 107 -15 124 -18 135 -36 135 -14
0 -15 -8 -10 -54z"/>
<path d="M5110 4586 c0 -2 7 -7 16 -10 8 -3 12 -2 9 4 -6 10 -25 14 -25 6z"/>
<path d="M8340 4573 c0 -5 -9 -63 -18 -130 -18 -115 -18 -122 -1 -126 14 -4
19 4 24 47 4 28 9 54 11 57 2 3 74 -5 161 -17 86 -12 161 -20 165 -18 22 14 5
33 -34 39 -24 4 -97 14 -163 24 l-120 17 3 57 c3 47 1 57 -12 57 -9 0 -16 -3
-16 -7z"/>
<path d="M1508 4217 c-93 -22 -168 -43 -168 -46 0 -3 4 -12 9 -20 8 -12 19
-11 75 3 36 9 71 16 79 16 19 0 55 -169 38 -179 -6 -4 -41 -13 -76 -20 -53
-11 -65 -17 -65 -32 0 -25 6 -25 172 16 79 19 153 37 166 40 21 5 30 29 14 39
-5 3 -42 -4 -83 -14 -41 -11 -75 -20 -76 -20 -3 0 -44 182 -41 185 2 1 37 10
78 20 41 10 76 19 78 20 7 6 -11 35 -22 34 -6 -1 -86 -19 -178 -42z"/>
<path d="M8286 4234 c-4 -9 -5 -18 -4 -19 2 -1 64 -16 139 -34 160 -38 174
-48 167 -116 -6 -52 -31 -85 -63 -85 -13 0 -80 14 -149 30 -125 30 -146 31
-146 7 0 -14 245 -78 298 -77 58 0 102 68 102 157 0 60 -30 80 -180 118 -157
40 -156 40 -164 19z"/>
<path d="M3123 4171 c-31 -28 -33 -34 -33 -99 l0 -69 64 -11 c91 -17 86 -20
86 54 0 63 -1 67 -42 110 l-43 45 -32 -30z"/>
<path d="M4210 4061 c0 -67 4 -111 10 -111 6 0 10 39 10 97 0 53 3 93 8 89 4
-4 21 -46 37 -94 17 -47 35 -87 41 -89 7 -2 26 38 45 94 l34 98 3 -97 c4 -136
22 -125 22 12 0 98 -2 110 -18 110 -12 0 -23 -16 -35 -52 -10 -29 -26 -73 -35
-97 l-16 -44 -31 94 c-26 77 -36 95 -53 97 -21 3 -22 1 -22 -107z"/>
<path d="M4640 4155 c0 -8 5 -15 10 -15 6 0 10 7 10 15 0 8 -4 15 -10 15 -5 0
-10 -7 -10 -15z"/>
<path d="M4710 4060 c0 -67 4 -110 10 -110 6 0 10 43 10 110 0 67 -4 110 -10
110 -6 0 -10 -43 -10 -110z"/>
<path d="M4780 4155 c0 -8 5 -15 10 -15 6 0 10 7 10 15 0 8 -4 15 -10 15 -5 0
-10 -7 -10 -15z"/>
<path d="M5076 4163 c-3 -3 -6 -53 -6 -110 0 -85 3 -103 15 -103 11 0 15 12
15 45 0 38 3 45 19 45 12 0 29 -17 45 -45 15 -25 31 -45 36 -45 14 0 13 5 -17
59 l-27 49 28 51 c15 29 25 55 21 59 -7 7 -9 5 -48 -63 -12 -22 -30 -41 -40
-43 -14 -3 -17 5 -17 47 0 47 -9 68 -24 54z"/>
<path d="M5250 4060 c0 -67 4 -110 10 -110 6 0 10 28 10 64 0 59 2 64 24 70
46 11 56 -1 56 -70 0 -53 3 -64 16 -64 14 0 16 9 11 67 -6 78 -22 97 -74 87
-32 -6 -33 -6 -33 30 0 20 -4 36 -10 36 -6 0 -10 -43 -10 -110z"/>
<path d="M5690 4137 c0 -31 -2 -33 -36 -33 -47 0 -64 -23 -64 -86 0 -59 25
-81 83 -71 l37 6 0 108 c0 66 -4 109 -10 109 -5 0 -10 -15 -10 -33z m-2 -109
c3 -54 2 -58 -23 -64 -37 -9 -55 11 -55 62 0 46 18 66 55 61 17 -2 20 -11 23
-59z"/>
<path d="M5860 4137 c0 -31 -2 -33 -36 -33 -47 0 -64 -23 -64 -86 0 -58 24
-78 83 -71 l37 5 0 109 c0 66 -4 109 -10 109 -5 0 -10 -15 -10 -33z m-2 -109
c3 -54 2 -58 -23 -64 -37 -9 -55 11 -55 62 0 46 18 66 55 61 17 -2 20 -11 23
-59z"/>
<path d="M6670 4060 c0 -91 3 -110 15 -110 12 0 15 19 15 110 0 91 -3 110 -15
110 -12 0 -15 -19 -15 -110z"/>
<path d="M4498 4103 c-30 -8 -20 -20 12 -15 32 5 60 -11 60 -34 0 -8 -10 -14
-24 -14 -49 0 -76 -17 -76 -49 0 -38 26 -54 67 -42 17 5 37 5 46 0 10 -6 18
-5 22 1 3 5 1 10 -4 10 -7 0 -11 24 -11 59 0 51 -3 62 -22 75 -22 16 -37 18
-70 9z m72 -108 c0 -26 -35 -43 -66 -31 -27 11 -13 50 21 57 38 7 45 3 45 -26z"/>
<path d="M4862 4094 c-36 -25 -25 -56 23 -72 52 -17 61 -27 45 -48 -11 -12
-24 -14 -52 -10 -48 8 -51 -9 -3 -18 40 -8 71 5 80 34 9 28 -10 48 -51 56 -41
7 -50 19 -33 40 9 11 23 14 46 11 37 -6 45 7 11 17 -34 9 -41 8 -66 -10z"/>
<path d="M5953 4103 c-39 -7 -25 -20 20 -19 36 1 42 -2 45 -21 3 -19 -1 -23
-26 -23 -43 0 -77 -30 -69 -62 8 -29 36 -40 76 -28 15 4 35 4 44 -2 18 -10 25
6 7 17 -5 3 -10 33 -10 65 0 74 -15 87 -87 73z m55 -134 c-21 -14 -55 -10 -62
6 -10 26 5 44 37 47 27 3 33 -1 35 -21 2 -13 -2 -28 -10 -32z"/>
<path d="M6123 4103 l-33 -4 0 -75 c0 -43 4 -74 10 -74 6 0 10 27 10 60 0 49
3 61 20 70 12 6 30 8 40 5 17 -5 20 -16 20 -71 0 -36 4 -64 10 -64 6 0 10 28
10 65 0 61 2 65 25 71 40 10 55 -11 55 -77 0 -33 4 -59 10 -59 12 0 13 119 1
138 -8 14 -33 17 -81 12 -14 -2 -34 -1 -45 2 -11 2 -35 3 -52 1z"/>
<path d="M4640 4010 c0 -79 -2 -91 -20 -102 -11 -7 -20 -16 -20 -20 0 -14 20
-8 40 12 17 17 20 33 20 110 0 53 -4 90 -10 90 -6 0 -10 -37 -10 -90z"/>
<path d="M4780 4025 c0 -43 4 -75 10 -75 6 0 10 32 10 75 0 43 -4 75 -10 75
-6 0 -10 -32 -10 -75z"/>
<path d="M5420 4040 c0 -69 25 -106 63 -96 12 3 32 6 45 6 21 0 22 4 22 75 0
60 -3 75 -15 75 -12 0 -15 -14 -15 -65 0 -62 -1 -65 -27 -71 -36 -9 -53 17
-53 83 0 29 -4 53 -10 53 -6 0 -10 -27 -10 -60z"/>
<path d="M6500 4035 c0 -57 3 -66 24 -80 16 -11 30 -13 47 -7 13 5 30 7 37 5
9 -4 12 15 12 71 0 44 -4 76 -10 76 -6 0 -10 -28 -10 -65 0 -61 -2 -65 -25
-71 -40 -10 -55 11 -55 77 0 33 -4 59 -10 59 -6 0 -10 -28 -10 -65z"/>
<path d="M6360 4030 c0 -5 20 -10 44 -10 25 0 48 5 51 10 4 6 -13 10 -44 10
-28 0 -51 -4 -51 -10z"/>
<path d="M3700 3995 c0 -41 22 -48 41 -13 10 18 8 24 -7 35 -28 20 -34 16 -34
-22z"/>
<path d="M3093 3931 c0 -28 4 -48 9 -45 4 3 6 10 3 15 -3 5 1 6 9 3 21 -8 20
5 -1 23 -17 14 -17 14 0 9 22 -7 22 0 -2 25 -19 20 -19 20 -18 -30z"/>
<path d="M3213 3935 c-17 -19 -17 -21 10 -22 12 0 16 1 9 4 -10 4 -10 8 -1 19
15 18 -2 17 -18 -1z"/>
<path d="M3170 3900 c0 -5 5 -10 11 -10 5 0 7 5 4 10 -3 6 -8 10 -11 10 -2 0
-4 -4 -4 -10z"/>
<path d="M3225 3890 c-3 -5 -1 -10 4 -10 6 0 11 5 11 10 0 6 -2 10 -4 10 -3 0
-8 -4 -11 -10z"/>
<path d="M1623 3849 c-34 -12 -81 -37 -103 -56 -37 -32 -40 -39 -40 -84 0 -56
27 -119 62 -143 45 -32 176 -7 255 47 51 34 67 77 53 139 -27 109 -100 140
-227 97z m169 -51 c26 -33 33 -85 17 -115 -17 -32 -123 -84 -185 -91 -37 -4
-49 -1 -69 18 -61 58 -53 135 19 172 103 53 185 59 218 16z"/>
<path d="M8202 3854 c-57 -40 -81 -157 -42 -207 25 -32 113 -74 183 -88 43 -9
60 -8 89 4 47 20 81 82 82 151 1 44 -2 51 -37 82 -72 62 -224 94 -275 58z
m163 -45 c77 -29 115 -63 115 -102 0 -38 -30 -91 -61 -108 -44 -23 -192 29
-232 84 -18 23 -19 31 -8 67 25 83 77 100 186 59z"/>
<path d="M3545 3804 c-38 -7 -110 -22 -160 -33 -49 -10 -93 -17 -97 -15 -4 3
-38 11 -75 19 -38 7 -77 16 -88 18 -98 23 -158 15 -105 -13 16 -9 20 -8 20 4
0 13 6 12 36 -5 20 -11 52 -21 72 -24 131 -13 156 -17 177 -25 25 -10 113 -4
149 10 12 4 31 6 44 4 13 -2 21 0 18 5 -11 18 39 21 52 3 15 -21 15 -20 35 -3
10 7 17 10 17 6 0 -4 7 -2 15 5 8 7 15 23 15 36 0 28 -14 29 -125 8z"/>
<path d="M4400 3675 c0 -70 4 -115 10 -115 6 0 10 30 10 70 l0 70 34 0 c40 0
46 -11 46 -86 0 -30 5 -54 10 -54 15 0 12 123 -4 145 -10 14 -21 17 -50 12
l-36 -6 0 40 c0 21 -4 39 -10 39 -6 0 -10 -45 -10 -115z"/>
<path d="M5100 3755 c0 -33 -2 -35 -35 -35 -55 0 -78 -30 -73 -92 3 -28 11
-54 19 -59 7 -4 35 -7 61 -6 l48 2 0 113 c0 68 -4 112 -10 112 -5 0 -10 -16
-10 -35z m-2 -112 c-3 -55 -4 -58 -31 -61 -37 -4 -57 13 -57 50 0 48 16 68 56
68 l35 0 -3 -57z"/>
<path d="M4240 3738 c-7 -24 -20 -73 -30 -110 -19 -67 -9 -97 11 -38 10 28 15
30 59 30 46 0 49 -2 55 -30 4 -16 11 -30 17 -30 11 0 7 18 -25 135 -20 73 -25
80 -49 83 -24 3 -28 -1 -38 -40z m59 -20 c7 -24 15 -51 17 -60 5 -15 -1 -18
-35 -18 -45 0 -48 6 -30 61 6 19 12 40 15 47 7 24 21 11 33 -30z"/>
<path d="M5170 3770 c0 -5 5 -10 10 -10 6 0 10 5 10 10 0 6 -4 10 -10 10 -5 0
-10 -4 -10 -10z"/>
<path d="M5780 3670 c0 -67 4 -110 10 -110 6 0 10 40 10 101 0 55 4 98 8 95 4
-2 25 -48 47 -100 34 -81 44 -96 63 -96 21 0 22 3 22 110 0 67 -4 110 -10 110
-6 0 -10 -40 -10 -101 0 -55 -4 -98 -9 -95 -5 3 -26 48 -47 101 -33 80 -42 95
-61 95 -22 0 -23 -3 -23 -110z"/>
<path d="M5990 3770 c0 -5 5 -10 10 -10 6 0 10 5 10 10 0 6 -4 10 -10 10 -5 0
-10 -4 -10 -10z"/>
<path d="M6500 3770 c0 -5 5 -10 10 -10 6 0 10 5 10 10 0 6 -4 10 -10 10 -5 0
-10 -4 -10 -10z"/>
<path d="M4570 3638 c0 -96 18 -104 22 -10 3 66 4 67 32 70 37 5 46 -10 46
-80 0 -81 18 -73 22 10 3 66 4 67 32 70 37 5 46 -10 46 -80 0 -32 5 -58 10
-58 13 0 13 116 0 140 -9 16 -22 18 -110 17 l-100 -1 0 -78z"/>
<path d="M4840 3710 c0 -5 18 -10 39 -10 26 0 41 -5 45 -16 9 -24 -2 -34 -38
-34 -39 0 -56 -15 -56 -51 0 -33 14 -38 88 -36 35 0 49 4 42 11 -5 5 -10 32
-10 59 0 71 -12 87 -65 87 -25 0 -45 -4 -45 -10z m88 -97 c-3 -24 -8 -28 -40
-31 -35 -3 -38 -1 -38 22 0 27 11 34 53 35 25 1 28 -2 25 -26z"/>
<path d="M5170 3640 c0 -47 4 -80 10 -80 6 0 10 33 10 80 0 47 -4 80 -10 80
-6 0 -10 -33 -10 -80z"/>
<path d="M5244 3645 c12 -42 27 -80 34 -84 8 -5 9 -16 3 -39 -6 -19 -6 -32 -1
-32 5 0 21 39 35 88 15 48 30 100 35 115 7 21 6 27 -3 24 -6 -2 -20 -34 -31
-70 -10 -37 -22 -67 -26 -67 -4 0 -16 30 -26 67 -11 36 -24 68 -31 70 -7 3 -2
-25 11 -72z"/>
<path d="M5380 3714 c0 -22 45 -154 53 -154 5 0 6 -15 3 -35 -4 -19 -3 -35 2
-35 11 0 75 220 67 228 -9 10 -21 -15 -35 -74 -8 -30 -17 -57 -22 -60 -9 -6
-10 -3 -33 79 -9 31 -21 57 -26 57 -5 0 -9 -3 -9 -6z"/>
<path d="M5545 3711 c-3 -6 14 -11 37 -13 35 -2 43 -7 43 -23 0 -12 -8 -21
-20 -23 -51 -7 -64 -13 -70 -32 -3 -10 -1 -28 5 -40 9 -17 19 -20 69 -18 l58
3 -4 40 c-9 83 -14 103 -29 109 -24 9 -82 7 -89 -3z m85 -101 c0 -28 -3 -30
-35 -30 -30 0 -35 3 -35 23 0 31 7 37 42 37 24 0 28 -4 28 -30z"/>
<path d="M5990 3640 c0 -47 4 -80 10 -80 6 0 10 33 10 80 0 47 -4 80 -10 80
-6 0 -10 -33 -10 -80z"/>
<path d="M6078 3709 c-19 -11 -25 -64 -8 -74 10 -6 3 -58 -12 -87 -17 -34 8
-58 60 -58 55 0 72 12 72 52 0 28 -9 33 -70 40 -38 4 -32 32 7 36 37 4 58 31
48 62 -4 14 -2 20 9 20 9 0 16 5 16 10 0 13 -100 12 -122 -1z m72 -38 c0 -21
-6 -32 -20 -36 -24 -8 -50 10 -50 35 0 23 9 30 42 30 24 0 28 -4 28 -29z m20
-136 c0 -18 -7 -26 -24 -31 -34 -8 -66 4 -66 25 0 26 9 31 52 31 34 0 38 -3
38 -25z"/>
<path d="M6237 3702 c-22 -24 -23 -105 -1 -126 17 -18 104 -23 104 -6 0 6 -20
10 -44 10 -31 0 -46 5 -50 16 -11 29 -6 33 47 36 51 3 52 3 49 33 -2 17 -10
36 -19 43 -24 18 -67 15 -86 -6z m81 -29 c3 -21 -1 -23 -37 -23 -41 0 -46 5
-35 35 10 26 68 16 72 -12z"/>
<path d="M6390 3640 c0 -47 4 -80 10 -80 6 0 10 27 10 61 0 58 1 60 30 70 17
6 30 15 30 20 0 11 -3 11 -34 -1 -17 -6 -26 -6 -26 0 0 6 -4 10 -10 10 -6 0
-10 -33 -10 -80z"/>
<path d="M6500 3640 c0 -47 4 -80 10 -80 6 0 10 33 10 80 0 47 -4 80 -10 80
-6 0 -10 -33 -10 -80z"/>
<path d="M6570 3711 c0 -6 19 -11 43 -13 34 -2 42 -7 42 -23 0 -16 -8 -21 -35
-23 -19 -2 -41 -8 -47 -14 -17 -14 -17 -53 0 -66 14 -12 127 -12 127 0 0 4 -4
8 -10 8 -6 0 -10 26 -10 58 0 32 -5 63 -12 70 -14 14 -98 16 -98 3z m90 -101
c0 -28 -3 -30 -35 -30 -23 0 -38 6 -41 15 -9 23 15 45 47 45 26 0 29 -4 29
-30z"/>
<path d="M8081 3582 c-9 -16 -1 -31 44 -92 30 -41 55 -77 55 -82 0 -4 -42 -8
-94 -8 -92 0 -106 -5 -106 -37 0 -3 53 -2 119 2 l118 7 61 -31 c70 -35 78 -37
86 -16 4 11 -14 25 -63 50 -63 31 -76 44 -139 130 -63 86 -72 94 -81 77z"/>
<path d="M3149 3529 c-1 -19 -3 -45 -4 -59 -3 -31 4 -52 16 -44 8 5 2 124 -7
133 -2 2 -5 -11 -5 -30z"/>
<path d="M1788 3485 c-69 -35 -134 -75 -142 -87 -47 -66 24 -208 104 -208 15
0 86 29 159 65 99 49 129 68 125 80 -3 8 -10 15 -14 15 -5 0 -65 -28 -134 -61
-140 -69 -163 -71 -196 -16 -28 44 -26 91 4 114 12 10 73 43 135 73 73 36 111
59 109 69 -2 8 -7 16 -13 17 -5 2 -67 -26 -137 -61z"/>
<path d="M3135 3380 c10 -11 20 -20 23 -20 3 0 -3 9 -13 20 -10 11 -20 20 -23
20 -3 0 3 -9 13 -20z"/>
<path d="M3200 3305 c19 -19 36 -35 39 -35 3 0 -10 16 -29 35 -19 19 -36 35
-39 35 -3 0 10 -16 29 -35z"/>
<path d="M3240 3315 c13 -14 26 -25 28 -25 3 0 -5 11 -18 25 -13 14 -26 25
-28 25 -3 0 5 -11 18 -25z"/>
<path d="M2063 3253 c-19 -7 -16 -20 12 -61 14 -20 25 -40 25 -43 0 -4 -63
-46 -141 -94 -124 -77 -139 -89 -126 -102 13 -13 29 -6 133 60 176 109 158
104 189 52 14 -25 30 -45 35 -45 26 0 16 30 -42 122 -78 125 -71 116 -85 111z"/>
<path d="M3399 3247 c17 -21 131 -121 131 -114 0 2 -33 33 -72 68 -40 35 -67
56 -59 46z"/>
<path d="M3655 3210 c-24 -25 -26 -30 -12 -36 29 -11 47 3 47 36 0 16 -1 30
-3 30 -2 0 -16 -13 -32 -30z"/>
<path d="M3495 3214 c6 -5 26 -23 45 -39 l35 -30 -25 28 c-14 16 -34 33 -45
39 -11 6 -15 6 -10 2z"/>
<path d="M7826 3113 l-56 -88 26 -20 c14 -11 83 -57 154 -102 l128 -81 56 89
c59 94 65 109 42 109 -8 0 -34 -31 -58 -70 -24 -38 -46 -70 -50 -70 -12 0
-108 61 -108 68 0 4 16 31 36 60 32 48 39 82 17 82 -5 0 -23 -25 -41 -55 -18
-30 -37 -57 -42 -60 -8 -5 -110 51 -110 61 0 2 20 35 45 73 48 74 54 91 31 91
-8 0 -39 -39 -70 -87z"/>
<path d="M3190 3165 c13 -14 26 -25 28 -25 3 0 -5 11 -18 25 -13 14 -26 25
-28 25 -3 0 5 -11 18 -25z"/>
<path d="M3250 3156 c0 -2 8 -10 18 -17 15 -13 16 -12 3 4 -13 16 -21 21 -21
13z"/>
<path d="M3587 3139 c14 -17 103 -83 103 -76 0 3 -26 24 -57 48 -32 23 -53 36
-46 28z"/>
<path d="M3555 3110 c10 -11 20 -20 23 -20 3 0 -3 9 -13 20 -10 11 -20 20 -23
20 -3 0 3 -9 13 -20z"/>
<path d="M3265 3090 c10 -11 20 -20 23 -20 3 0 -3 9 -13 20 -10 11 -20 20 -23
20 -3 0 3 -9 13 -20z"/>
<path d="M3350 3065 c13 -14 26 -25 28 -25 3 0 -5 11 -18 25 -13 14 -26 25
-28 25 -3 0 5 -11 18 -25z"/>
<path d="M3590 3086 c0 -2 8 -10 18 -17 15 -13 16 -12 3 4 -13 16 -21 21 -21
13z"/>
<path d="M3330 3035 c19 -19 36 -35 39 -35 3 0 -10 16 -29 35 -19 19 -36 35
-39 35 -3 0 10 -16 29 -35z"/>
<path d="M3630 3056 c0 -2 8 -10 18 -17 15 -13 16 -12 3 4 -13 16 -21 21 -21
13z"/>
<path d="M3707 3049 c12 -15 73 -53 73 -46 0 2 -19 17 -42 32 -24 16 -38 22
-31 14z"/>
<path d="M3425 3000 c10 -11 20 -20 23 -20 3 0 -3 9 -13 20 -10 11 -20 20 -23
20 -3 0 3 -9 13 -20z"/>
<path d="M3405 2970 c10 -11 20 -20 23 -20 3 0 -3 9 -13 20 -10 11 -20 20 -23
20 -3 0 3 -9 13 -20z"/>
<path d="M3740 2978 c19 -18 90 -61 90 -55 0 3 -24 20 -52 37 -29 18 -46 25
-38 18z"/>
<path d="M3820 2976 c0 -3 9 -10 20 -16 11 -6 20 -8 20 -6 0 3 -9 10 -20 16
-11 6 -20 8 -20 6z"/>
<path d="M3450 2936 c0 -2 8 -10 18 -17 15 -13 16 -12 3 4 -13 16 -21 21 -21
13z"/>
<path d="M3510 2936 c0 -2 8 -10 18 -17 15 -13 16 -12 3 4 -13 16 -21 21 -21
13z"/>
<path d="M3890 2936 c0 -3 9 -10 20 -16 11 -6 20 -8 20 -6 0 3 -9 10 -20 16
-11 6 -20 8 -20 6z"/>
<path d="M7692 2914 c-8 -15 0 -26 50 -65 32 -26 59 -51 59 -56 0 -9 -103
-143 -109 -143 -2 0 -32 22 -67 50 -54 43 -64 48 -75 35 -7 -9 -11 -17 -9 -19
2 -2 67 -54 143 -115 113 -90 142 -108 154 -99 15 13 6 23 -81 93 l-37 30 56
70 c31 39 57 72 59 74 3 2 26 -14 52 -35 83 -68 79 -66 92 -50 10 12 -11 32
-116 117 -70 56 -135 109 -145 116 -14 13 -17 12 -26 -3z"/>
<path d="M2290 2895 c-10 -12 -7 -21 19 -50 17 -20 31 -39 31 -44 0 -5 -56
-54 -125 -111 -102 -83 -124 -104 -114 -116 14 -17 11 -19 139 86 58 47 111
90 119 95 10 6 24 -4 51 -34 29 -35 38 -40 47 -30 9 11 -6 36 -69 114 -44 55
-81 101 -83 103 -1 1 -8 -4 -15 -13z"/>
<path d="M3490 2906 c0 -2 8 -10 18 -17 15 -13 16 -12 3 4 -13 16 -21 21 -21
13z"/>
<path d="M3860 2906 c0 -3 9 -10 20 -16 11 -6 20 -8 20 -6 0 3 -9 10 -20 16
-11 6 -20 8 -20 6z"/>
<path d="M3130 2857 c0 -2 25 -27 55 -55 30 -28 55 -48 55 -44 0 7 -110 106
-110 99z"/>
<path d="M1615 2643 c0 -16 4 -33 8 -40 4 -6 1 -14 -5 -16 -9 -4 -9 -6 -1 -6
6 -1 9 -9 6 -19 -8 -31 244 -358 371 -482 l46 -44 0 56 c0 61 6 52 -140 219
-35 41 -111 137 -168 214 -57 77 -107 141 -111 143 -4 1 -6 -10 -6 -25z"/>
<path d="M7396 2571 c-67 -67 -87 -94 -82 -107 6 -15 13 -11 51 26 l45 44 118
-117 c108 -107 120 -117 133 -101 12 15 2 28 -106 130 l-120 113 39 39 c33 35
41 62 18 62 -4 0 -47 -40 -96 -89z"/>
<path d="M2386 2521 c-114 -114 -128 -132 -116 -146 12 -14 20 -10 74 44 l62
61 62 -63 c34 -34 62 -67 62 -72 0 -5 -25 -35 -56 -66 -44 -45 -52 -58 -41
-67 19 -16 277 242 259 260 -10 10 -24 0 -70 -45 l-58 -57 -67 68 -67 67 57
58 c51 50 56 58 43 72 -14 13 -30 0 -144 -114z"/>
<path d="M3008 2581 c4 -49 5 -51 80 -107 43 -32 91 -68 109 -81 31 -24 32
-24 42 -4 8 14 8 22 -1 27 -7 5 -8 3 -3 -6 5 -9 4 -11 -3 -6 -8 5 -10 1 -5
-11 3 -10 3 -15 -1 -11 -4 3 -8 12 -10 20 -1 7 -6 19 -10 27 -7 11 -6 12 5 5
8 -4 21 -9 29 -11 8 -1 16 -7 18 -12 2 -6 8 -11 14 -11 6 0 34 -14 62 -31 77
-48 34 -5 -63 61 -47 33 -124 91 -171 130 -46 38 -87 70 -90 70 -3 0 -3 -22
-2 -49z"/>
<path d="M2672 2243 c-62 -76 -112 -140 -112 -143 1 -3 39 -35 84 -72 69 -56
86 -65 95 -54 10 12 -2 25 -58 71 l-71 57 38 49 c20 26 41 48 46 49 4 0 31
-18 59 -40 48 -39 68 -45 73 -24 2 5 -22 28 -52 52 -30 24 -54 46 -54 50 1 4
18 27 40 51 l39 44 69 -56 c38 -31 72 -57 75 -57 2 0 7 6 10 14 4 9 -21 36
-69 76 -41 33 -80 63 -87 66 -8 3 -61 -54 -125 -133z"/>
<path d="M7091 2294 c-74 -59 -81 -68 -68 -82 8 -10 59 -74 115 -144 87 -111
102 -125 117 -114 15 11 12 18 -31 70 l-48 59 30 26 c16 14 42 36 57 48 26 20
30 43 7 43 -4 0 -31 -18 -59 -40 -28 -22 -54 -40 -58 -40 -10 1 -83 95 -83
107 1 4 30 30 65 58 61 47 73 64 48 72 -5 2 -47 -26 -92 -63z"/>
<path d="M6830 2111 c-50 -28 -80 -63 -87 -104 -11 -72 92 -235 161 -253 62
-15 166 47 182 110 9 38 -9 94 -54 160 -66 98 -131 126 -202 87z m97 -34 c54
-30 130 -160 119 -203 -9 -35 -52 -72 -92 -80 -46 -8 -76 13 -124 88 -64 98
-63 148 3 188 37 23 63 25 94 7z"/>
<path d="M3046 1974 c-49 -80 -89 -153 -90 -161 -3 -36 25 -21 58 31 20 31 38
56 41 56 3 0 24 -10 46 -22 l39 -23 -2 -85 c-3 -70 0 -85 12 -85 8 0 16 9 17
20 13 133 12 130 44 131 37 1 84 45 99 90 9 27 8 40 -4 66 -16 32 -36 49 -126
101 l-45 25 -89 -144z m201 29 c40 -37 38 -59 -6 -106 -31 -34 -57 -32 -125
10 l-45 29 41 67 40 67 31 -18 c16 -9 45 -31 64 -49z"/>
<path d="M3356 1784 c-42 -86 -76 -159 -76 -163 0 -5 183 -101 194 -101 2 0 6
7 10 15 4 11 -15 25 -72 53 -42 20 -79 38 -81 40 -5 2 50 122 56 122 2 0 30
-13 63 -30 67 -34 80 -36 80 -15 0 9 -27 27 -65 44 l-65 30 25 53 c13 29 29
54 34 56 5 2 41 -13 81 -33 66 -33 90 -37 90 -15 0 10 -171 100 -189 100 -4 0
-43 -70 -85 -156z"/>
<path d="M6473 1902 c-8 -5 8 -50 56 -157 38 -83 67 -152 65 -154 -2 -2 -47
36 -100 85 -52 49 -114 104 -136 123 -39 34 -40 34 -73 18 l-34 -16 75 -163
c40 -90 77 -164 81 -165 5 -2 14 1 21 5 9 7 -3 43 -53 151 -36 79 -65 148 -65
153 0 10 36 -21 184 -156 l87 -79 34 16 34 16 -23 53 c-89 199 -125 272 -132
275 -5 1 -14 -1 -21 -5z"/>
<path d="M3652 1645 c-35 -91 -60 -170 -57 -175 15 -24 32 -6 55 55 13 36 30
65 37 65 8 0 40 -11 73 -24 50 -20 59 -22 64 -9 3 8 6 16 6 17 0 2 -31 15 -69
30 l-70 27 22 61 c12 33 27 62 33 65 6 2 45 -9 87 -25 65 -26 77 -28 82 -14 3
8 4 16 3 17 -5 5 -190 75 -197 75 -3 0 -35 -74 -69 -165z"/>
<path d="M6017 1726 c-80 -30 -106 -81 -87 -172 16 -77 42 -133 75 -166 36
-36 101 -38 165 -5 74 37 87 94 49 212 -29 87 -71 135 -124 141 -22 2 -57 -2
-78 -10z m113 -54 c28 -28 70 -140 70 -187 0 -56 -85 -108 -142 -86 -50 19
-108 174 -88 235 21 65 111 86 160 38z"/>
<path d="M3991 1662 c-40 -39 -73 -134 -75 -210 -1 -60 1 -65 31 -92 63 -56
146 -64 198 -19 67 59 99 236 53 294 -28 35 -75 55 -133 55 -37 0 -52 -5 -74
-28z m143 -22 c37 -14 49 -45 43 -110 -6 -65 -42 -157 -68 -170 -53 -29 -142
6 -154 59 -7 35 17 141 43 186 31 52 67 62 136 35z"/>
<path d="M5772 1652 c-9 -7 -3 -48 30 -185 23 -97 44 -177 47 -177 3 0 12 4
20 9 11 7 5 41 -29 185 -24 97 -45 176 -49 176 -3 0 -12 -4 -19 -8z"/>
<path d="M5620 1620 c-19 -4 -68 -13 -107 -20 -60 -10 -73 -15 -73 -30 0 -16
5 -18 38 -13 79 14 73 21 98 -122 36 -208 32 -194 54 -188 14 4 18 11 15 27
-3 11 -14 75 -25 141 -11 66 -23 130 -25 142 -4 19 1 22 47 30 38 6 54 13 56
26 4 19 -17 21 -78 7z"/>
<path d="M4345 1598 c-2 -13 -16 -93 -29 -178 -19 -118 -22 -156 -13 -162 25
-16 27 -13 42 90 l7 43 46 -7 c26 -4 50 -8 53 -10 3 -2 16 -37 28 -79 18 -60
27 -75 42 -75 23 0 24 -3 -3 83 -16 53 -18 72 -9 75 33 11 63 49 68 89 12 90
-15 118 -130 139 -96 17 -96 17 -102 -8z m105 -28 c64 -12 90 -33 90 -71 0
-36 -18 -76 -39 -84 -22 -9 -141 5 -141 17 0 29 24 148 30 148 4 0 31 -5 60
-10z"/>
<path d="M5269 1573 l-36 -4 -33 -180 c-18 -99 -30 -182 -27 -186 15 -14 35 9
41 47 7 46 7 46 98 54 l67 5 17 -44 c12 -32 22 -45 36 -45 23 0 27 -14 -51
196 -32 87 -62 159 -67 159 -5 1 -25 0 -45 -2z m62 -130 l36 -98 -65 -8 c-36
-4 -67 -5 -70 -2 -5 4 27 183 35 198 13 23 33 -4 64 -90z"/>
<path d="M4696 1498 c-3 -40 -7 -124 -9 -185 -2 -99 0 -113 14 -113 21 0 29
56 29 206 0 63 4 114 8 114 5 0 29 -69 54 -152 41 -141 47 -153 70 -156 23 -3
28 6 77 135 28 76 56 145 62 153 7 10 9 -34 4 -147 -6 -156 -5 -163 13 -163
17 0 20 11 25 122 4 66 7 150 7 185 l0 64 -36 -3 -36 -3 -54 -144 c-30 -80
-56 -146 -58 -149 -4 -3 -23 57 -76 236 -21 71 -21 72 -55 72 l-33 0 -6 -72z"/>
<path d="M4960 825 c0 -2 6 -8 13 -14 10 -8 14 -7 14 2 0 8 -6 14 -14 14 -7 0
-13 -1 -13 -2z"/>
</g>
</svg>
